<svg xmlns="http://www.w3.org/2000/svg" width="127" height="39" viewBox="0 0 127 39" fill="none"><path d="M33.97 14.0497V10.0397H28.16V30.9997H33.97V20.4997C33.97 16.4897 36.45 15.0897 40.74 15.1297V9.71973C37.33 9.75973 35.29 11.2397 33.97 14.0497Z" fill="#FF4900"></path><path d="M57.05 22.34C57.05 25.43 55.13 26.95 52.68 26.95C50.2 26.95 49.03 25.59 49.03 22.74V10.04H43.26V23.54C43.26 29.03 46.3 31.43 50.39 31.43C53.84 31.43 55.96 29.83 57.04 27.7V31H62.81V10.04H57.04V22.34H57.05Z" fill="#FF4900"></path><path d="M81.41 13.1696C80.21 11.0496 78.16 9.55957 74.76 9.55957C69.55 9.55957 65.55 13.7696 65.55 19.7796V20.0596C65.55 26.2696 69.6 30.0796 74.68 30.0796C77.77 30.0796 80.25 28.2396 81.41 26.1896V29.3596C81.41 32.6396 79.65 34.4896 76.12 34.4896C73.15 34.4896 71.83 33.2896 71.47 31.4496H65.7C66.26 35.7796 69.35 38.7396 76.12 38.7396C83.01 38.7396 87.14 35.5696 87.18 29.3596V10.0396H81.41V13.1696ZM81.57 19.9796C81.57 23.5496 79.45 25.7096 76.4 25.7096C73.52 25.7096 71.47 23.5496 71.47 20.0596V19.7396C71.47 16.2896 73.27 13.9696 76.52 13.9696C79.69 13.9696 81.57 16.1296 81.57 19.6996V19.9796Z" fill="#FF4900"></path><path d="M100.68 9.55957C94.59 9.55957 89.9 13.8496 89.9 20.4596V20.7796C89.9 27.4696 94.51 31.4396 100.84 31.4396C106.57 31.4396 110.17 28.9196 110.86 24.3896H105.37C105.01 26.1496 103.69 27.3196 101 27.3196C97.83 27.3196 95.95 25.3196 95.79 21.8296H110.9V20.2296C110.9 12.7296 106.09 9.55957 100.68 9.55957ZM95.87 18.2496C96.31 15.2896 98.07 13.5596 100.68 13.5596C103.45 13.5596 105.05 15.0796 105.25 18.2496H95.87Z" fill="#FF4900"></path><path d="M119.39 14.0497V10.0397H113.58V30.9997H119.39V20.4997C119.39 16.4897 121.87 15.0897 126.16 15.1297V9.71973C122.76 9.75973 120.71 11.2397 119.39 14.0497Z" fill="#FF4900"></path><path d="M11.06 5.53C11.06 2.48 8.59 0 5.53 0C2.48 0 0 2.48 0 5.53C0 8.58 2.48 11.06 5.53 11.06C8.59 11.06 11.06 8.59 11.06 5.53ZM4.77 5.53C4.77 5.11 5.11 4.77 5.53 4.77C5.95 4.77 6.29 5.11 6.29 5.53C6.29 5.95 5.95 6.29 5.53 6.29C5.11 6.29 4.77 5.95 4.77 5.53Z" fill="#FF4900"></path><path d="M6.60999 17.4199L17.88 30.9299H26.31L15.04 17.4199H6.60999Z" fill="#FF4900"></path><path d="M15.04 15.8401L26.31 2.33008H17.88L6.60999 15.8401H15.04Z" fill="#FF4900"></path><path d="M1.96002 21.0604V30.9504H8.11002V21.2704L5.09002 17.6504L1.96002 21.0604Z" fill="#FF4900"></path></svg>