<svg width="212" height="71" viewBox="0 0 212 71" fill="none" xmlns="http://www.w3.org/2000/svg">
<path d="M21.624 14.1193L35.8545 28.6689C37.206 30.0405 37.206 32.2727 35.881 33.6443L29.9185 39.8299C28.567 41.2284 28.5935 43.5144 29.998 44.886C30.2895 45.1818 30.6605 45.4238 31.0315 45.5852C36.199 47.7636 39.9355 43.864 39.9355 43.864L47.1965 36.3337C47.276 36.253 47.3555 36.1454 47.435 36.0379C51.9135 30.2826 47.064 25.6299 46.428 25.0651C46.375 25.0113 46.322 24.9576 46.269 24.9038L34.503 12.9091C33.443 11.7257 31.8265 10.8651 31.2435 10.5962C31.111 10.5424 31.005 10.4886 30.8725 10.4348C30.1835 10.1928 29.521 10.0852 28.8585 10.0852C24.8305 10.0852 21.624 14.1193 21.624 14.1193Z" fill="url(#paint0_linear)"/>
<path d="M19.6101 27.1091L12.3491 34.6394C12.2696 34.7201 12.1901 34.8276 12.1106 34.9352C7.6321 40.6905 12.4816 45.3432 13.1176 45.9079C13.1706 45.9617 13.2236 46.0155 13.2766 46.0693L25.0956 58.064C26.1556 59.2473 27.7721 60.1079 28.3551 60.3769C28.4876 60.4307 28.5936 60.4845 28.7261 60.5382C30.9256 61.3182 32.9926 60.6727 34.6091 59.7045C36.5701 58.5481 36.9146 55.778 35.3246 54.1375L23.7176 42.2773C22.3661 40.9057 22.3661 38.6735 23.6911 37.3019L29.6536 31.1432C31.0051 29.7447 30.9786 27.4587 29.5741 26.0871C29.2826 25.7913 28.9116 25.5492 28.5406 25.3879C27.4276 24.9038 26.3676 24.7155 25.3871 24.7155C21.9156 24.7155 19.6101 27.1091 19.6101 27.1091Z" fill="url(#paint1_linear)"/>
<path d="M20.6963 39.803L27.1093 43.6489V35.5807L20.6963 31.7349V39.803Z" fill="#BF2026"/>
<path d="M20.6963 39.803L27.1093 43.6489V35.5807L20.6963 31.7349V39.803Z" stroke="#BF2026" stroke-width="0.197" stroke-miterlimit="10" stroke-linecap="round" stroke-linejoin="bevel"/>
<path d="M27.1094 43.6489L39.5644 39.6148V31.5735L27.1094 35.5807V43.6489Z" fill="#9A1C1F"/>
<path d="M27.1093 35.5807L39.5643 31.5735L33.1778 27.7008L20.6963 31.7349L27.1093 35.5807Z" fill="#DF1F26"/>
<path d="M27.1093 35.5807L39.5643 31.5735L33.1778 27.7008L20.6963 31.7349L27.1093 35.5807Z" stroke="#BF2026" stroke-width="0.197" stroke-miterlimit="10" stroke-linecap="round" stroke-linejoin="bevel"/>
<path d="M36.7555 30.444H33.125V31.5466H36.7555V30.444Z" fill="#A71E22"/>
<path d="M33.125 31.5735C33.125 32.0307 33.9465 32.4072 34.9535 32.4072C35.9605 32.4072 36.782 32.0307 36.782 31.5735C36.782 31.1163 35.9605 30.7398 34.9535 30.7398C33.9465 30.7398 33.125 31.1163 33.125 31.5735Z" fill="#9A1C1F"/>
<path d="M33.125 30.444C33.125 30.9012 33.9465 31.2777 34.9535 31.2777C35.9605 31.2777 36.782 30.9012 36.782 30.444C36.782 29.9868 35.9605 29.6103 34.9535 29.6103C33.9465 29.6372 33.125 29.9868 33.125 30.444Z" fill="#DF1F26"/>
<path d="M33.125 30.444C33.125 30.9012 33.9465 31.2777 34.9535 31.2777C35.9605 31.2777 36.782 30.9012 36.782 30.444C36.782 29.9868 35.9605 29.6103 34.9535 29.6103C33.9465 29.6372 33.125 29.9868 33.125 30.444Z" stroke="#BF2026" stroke-width="0.197" stroke-miterlimit="10" stroke-linejoin="round"/>
<path d="M33.4957 28.3731H29.8652V29.4758H33.4957V28.3731Z" fill="#A71E22"/>
<path d="M29.8652 29.4758C29.8652 29.933 30.6867 30.3095 31.6937 30.3095C32.7007 30.3095 33.5222 29.933 33.5222 29.4758C33.5222 29.0186 32.7007 28.6421 31.6937 28.6421C30.6867 28.669 29.8652 29.0186 29.8652 29.4758Z" fill="#9A1C1F"/>
<path d="M29.8652 28.3731C29.8652 28.8303 30.6867 29.2068 31.6937 29.2068C32.7007 29.2068 33.5222 28.8303 33.5222 28.3731C33.5222 27.9159 32.7007 27.5394 31.6937 27.5394C30.6867 27.5394 29.8652 27.9159 29.8652 28.3731Z" fill="#DF1F26"/>
<path d="M29.8652 28.3731C29.8652 28.8303 30.6867 29.2068 31.6937 29.2068C32.7007 29.2068 33.5222 28.8303 33.5222 28.3731C33.5222 27.9159 32.7007 27.5394 31.6937 27.5394C30.6867 27.5394 29.8652 27.9159 29.8652 28.3731Z" stroke="#BF2026" stroke-width="0.197" stroke-miterlimit="10" stroke-linejoin="round"/>
<path d="M30.1305 32.6493H26.5V33.7519H30.1305V32.6493Z" fill="#A71E22"/>
<path d="M26.4736 33.7788C26.4736 34.236 27.2951 34.6126 28.3021 34.6126C29.3091 34.6126 30.1306 34.236 30.1306 33.7788C30.1306 33.3216 29.3091 32.9451 28.3021 32.9451C27.2951 32.9451 26.4736 33.3216 26.4736 33.7788Z" fill="#9A1C1F"/>
<path d="M26.4736 32.6493C26.4736 33.1065 27.2951 33.483 28.3021 33.483C29.3091 33.483 30.1306 33.1065 30.1306 32.6493C30.1306 32.1921 29.3091 31.8156 28.3021 31.8156C27.2951 31.8424 26.4736 32.1921 26.4736 32.6493Z" fill="#DF1F26"/>
<path d="M26.4736 32.6493C26.4736 33.1065 27.2951 33.483 28.3021 33.483C29.3091 33.483 30.1306 33.1065 30.1306 32.6493C30.1306 32.1921 29.3091 31.8156 28.3021 31.8156C27.2951 31.8424 26.4736 32.1921 26.4736 32.6493Z" stroke="#BF2026" stroke-width="0.197" stroke-miterlimit="10" stroke-linejoin="round"/>
<path d="M26.9772 30.7398H23.3467V31.8425H26.9772V30.7398Z" fill="#A71E22"/>
<path d="M23.3467 31.8424C23.3467 32.2996 24.1682 32.6761 25.1752 32.6761C26.1822 32.6761 27.0037 32.2996 27.0037 31.8424C27.0037 31.3852 26.1822 31.0087 25.1752 31.0087C24.1417 31.0087 23.3467 31.3852 23.3467 31.8424Z" fill="#9A1C1F"/>
<path d="M23.3467 30.7398C23.3467 31.197 24.1682 31.5736 25.1752 31.5736C26.1822 31.5736 27.0037 31.197 27.0037 30.7398C27.0037 30.2826 26.1822 29.9061 25.1752 29.9061C24.1417 29.9061 23.3467 30.2826 23.3467 30.7398Z" fill="#DF1F26"/>
<path d="M23.3467 30.7398C23.3467 31.197 24.1682 31.5736 25.1752 31.5736C26.1822 31.5736 27.0037 31.197 27.0037 30.7398C27.0037 30.2826 26.1822 29.9061 25.1752 29.9061C24.1417 29.9061 23.3467 30.2826 23.3467 30.7398Z" stroke="#BF2026" stroke-width="0.197" stroke-miterlimit="10" stroke-linejoin="round"/>
<path d="M60.1552 14.6303C63.5207 14.6303 66.3562 16.8625 66.3562 20.4394C66.3562 23.9625 63.5472 26.2485 60.1552 26.2485H57.6377V33.2678H54.9082V14.6303H60.1552ZM59.8637 23.7205C62.0632 23.7205 63.6267 22.6716 63.6267 20.4125C63.6267 18.2341 62.0897 17.1046 59.8637 17.1046H57.6377V23.7205H59.8637Z" fill="white"/>
<path d="M79.102 30.8743V33.2678H68.873V14.6303H71.6026V30.8743H79.102Z" fill="white"/>
<path d="M90.4708 28.8034H83.2363L81.5668 33.2409H78.7578L86.0188 14.6034H87.8473L95.1083 33.2409H92.1668L90.4708 28.8034ZM89.5963 26.5174L88.3508 23.2901C87.8208 21.9454 87.3173 20.5738 86.8138 19.1216C86.2838 20.5738 85.7538 21.9723 85.2768 23.317L84.0578 26.5174H89.5963Z" fill="white"/>
<path d="M102.581 25.1996V33.2678H99.8516V25.1996L93.4121 14.6303H96.4066L101.309 22.9405L106.185 14.6303H108.994L102.581 25.1996Z" fill="white"/>
<path d="M120.946 14.6303C126.59 14.6303 130.724 18.2879 130.724 23.9625C130.724 29.3951 126.643 33.2947 120.946 33.2947H115.354V14.6303H120.946ZM120.734 30.7667C125.053 30.7667 127.942 27.9966 127.942 23.9356C127.942 19.6595 125 17.1046 120.734 17.1046H118.084V30.7398H120.734V30.7667Z" fill="white"/>
<path d="M136.263 14.6303H133.533V33.2678H136.263V14.6303Z" fill="white"/>
<path d="M155.29 25.1727V31.8962C153.382 33.0527 151.819 33.5368 148.851 33.5368C143.445 33.5368 139.046 29.4489 139.046 24.0163C139.046 18.1534 143.71 14.2807 149.566 14.2807C151.554 14.2807 153.197 14.711 154.416 15.3296V18.261C152.905 17.3735 151.156 16.9432 149.46 16.9432C144.876 16.9432 141.828 19.5788 141.828 23.9625C141.828 28.3193 144.876 31.0625 149.036 31.0625C150.414 31.0625 151.554 30.8474 152.561 30.4977V25.1727H155.29Z" fill="white"/>
<path d="M160.537 14.6303H157.808V33.2678H160.537V14.6303Z" fill="white"/>
<path d="M175.801 17.0239H170.262V33.2678H167.533V17.0239H161.994V14.6303H175.801V17.0239Z" fill="white"/>
<path d="M185.474 28.8034H178.239L176.57 33.2409H173.761L181.022 14.6034H182.85L190.111 33.2409H187.17L185.474 28.8034ZM184.599 26.5174L183.354 23.2901C182.824 21.9454 182.32 20.5738 181.817 19.1216C181.287 20.5738 180.757 21.9723 180.28 23.317L179.061 26.5174H184.599Z" fill="white"/>
<path d="M201.692 30.8743V33.2678H191.463V14.6303H194.192V30.8743H201.692Z" fill="white"/>
<path d="M54.3779 46.6879C54.3779 40.825 58.8034 36.9523 64.3684 36.9523C66.2499 36.9523 67.6279 37.3826 68.7939 37.9742V40.8788C67.3629 40.0182 65.9319 39.5879 64.3154 39.5879C60.0224 39.5879 57.1604 42.2235 57.1604 46.6072C57.1604 50.964 60.0224 53.7072 63.9179 53.7072C66.2499 53.7072 67.8929 53.1424 69.4299 52.1205V54.8099C67.8929 55.6974 66.1174 56.1814 63.7589 56.1814C58.5914 56.1814 54.3779 52.1205 54.3779 46.6879Z" fill="white"/>
<path d="M74.4121 49.2697C74.4121 45.128 77.1946 42.2773 80.9576 42.2773C84.7206 42.2773 87.5031 45.1549 87.5031 49.2697C87.5031 53.3845 84.7206 56.2621 80.9576 56.2621C77.1946 56.2621 74.4121 53.3576 74.4121 49.2697ZM84.8531 49.2697C84.8531 46.4458 83.3426 44.6708 80.9311 44.6708C78.5461 44.6708 77.0091 46.4458 77.0091 49.2697C77.0091 52.0936 78.5196 53.8686 80.9311 53.8686C83.3426 53.8686 84.8531 52.0936 84.8531 49.2697Z" fill="white"/>
<path d="M103.642 47.172V55.9394H101.018V47.2258C101.018 45.5852 100.303 44.7784 98.4744 44.7784C97.2554 44.7784 96.1954 45.1011 95.1089 46.1231V55.9394H92.4854V42.6269H94.8174L94.8704 45.1011H94.9764C95.7979 43.1917 97.3614 42.2773 99.2429 42.2773C101.893 42.2504 103.642 43.7833 103.642 47.172Z" fill="white"/>
<path d="M109.021 55.2401V52.6045C110.108 53.3038 111.618 53.7879 113.023 53.7879C114.268 53.7879 114.931 53.1962 114.931 52.3087C114.931 49.8076 109.127 50.6951 109.127 46.2844C109.127 44.106 110.85 42.3848 113.632 42.3848C114.719 42.3848 115.858 42.6269 116.627 43.0572V45.5045C115.938 45.0473 114.851 44.7784 113.659 44.7784C112.36 44.7784 111.671 45.3701 111.671 46.2038C111.671 48.5435 117.554 47.4409 117.554 52.2549C117.554 54.8905 115.222 56.1814 112.864 56.1814C111.486 56.1545 110.24 55.8318 109.021 55.2401Z" fill="white"/>
<path d="M133.56 42.6V55.9125H131.387L131.201 53.8954H131.122C130.433 55.1326 128.896 56.2621 126.776 56.2621C123.993 56.2621 122.43 54.4064 122.43 51.3674V42.6H125.053V51.4212C125.053 53.0617 125.822 53.8685 127.385 53.8685C128.763 53.8685 129.717 53.5458 130.963 52.739V42.6H133.56Z" fill="white"/>
<path d="M144.584 53.6265V55.7512C144.107 55.9663 143.63 56.1008 142.861 56.1008C140.635 56.1008 139.337 54.7292 139.337 52.6583V36.8716L141.96 36.4682V52.2818C141.96 53.4114 142.49 53.8148 143.312 53.8148C143.868 53.8417 144.266 53.761 144.584 53.6265Z" fill="white"/>
<path d="M152.587 51.7708C152.587 53.25 153.17 53.8417 154.892 53.8417C155.608 53.8417 156.085 53.7341 156.535 53.5189V55.6704C155.952 55.9125 155.29 56.1007 154.256 56.1007C151.341 56.1007 149.963 54.4602 149.963 52.1204V44.7246H147.896V42.6H149.963V39.0231L152.587 38.6197V42.6H156.668V44.7246H152.587V51.7708Z" fill="white"/>
<path d="M161.306 38.3508C161.306 37.517 162.313 36.522 163.108 36.522C163.903 36.522 164.883 37.5439 164.883 38.3508C164.883 39.1845 163.903 40.1795 163.108 40.1795C162.313 40.1795 161.306 39.1845 161.306 38.3508ZM161.677 42.6H164.3V55.9125H161.677V42.6Z" fill="white"/>
<path d="M181.234 47.172V55.9394H178.61V47.2258C178.61 45.5852 177.895 44.7784 176.066 44.7784C174.847 44.7784 173.787 45.1011 172.701 46.1231V55.9394H170.077V42.6269H172.409L172.462 45.1011H172.568C173.39 43.1917 174.953 42.2773 176.835 42.2773C179.485 42.2504 181.234 43.7833 181.234 47.172Z" fill="white"/>
<path d="M198.883 44.9129C197.849 44.9129 197.134 44.9667 196.471 45.1011C196.683 45.639 196.789 46.2307 196.789 46.8492C196.789 49.6462 194.696 51.4481 191.648 51.4481H191.277C190.27 52.1204 189.846 52.6852 189.846 53.1155C189.846 53.6265 190.164 53.8685 190.986 53.8685H195.12C197.16 53.8685 198.856 55.2939 198.856 57.4723C198.856 60.4038 195.888 62.9049 191.728 62.9049C187.302 62.9049 185.288 60.861 185.288 58.9246C185.288 58.0909 185.553 57.3648 186.242 56.8269C186.825 56.3697 187.541 56.047 188.548 55.9932C187.567 55.8049 187.011 55.1326 187.011 54.272C187.011 53.4651 187.461 52.739 188.124 52.2011C188.68 51.717 189.396 51.3674 190.164 51.2867C188.018 50.7488 186.587 49.1352 186.587 46.8492C186.587 44.0523 188.68 42.2504 191.675 42.2504C193.583 42.2504 195.12 42.9765 195.994 44.1598L196.074 44.1329C196.286 43.0841 197.213 42.6 198.909 42.6V44.9129H198.883ZM193.954 56.1007H190.191C188.23 56.8807 187.806 57.4454 187.806 58.306C187.806 59.8121 189.025 60.6996 191.728 60.6996C194.855 60.6996 196.312 59.328 196.312 57.8757C196.339 56.7462 195.597 56.1007 193.954 56.1007ZM194.404 46.8761C194.404 45.2894 193.371 44.4288 191.622 44.4288C189.899 44.4288 188.919 45.2894 188.919 46.8761C188.919 48.436 189.899 49.3235 191.622 49.3235C193.397 49.3235 194.404 48.436 194.404 46.8761Z" fill="white"/>
<defs>
<linearGradient id="paint0_linear" x1="21.6362" y1="28.1596" x2="49.3543" y2="28.1596" gradientUnits="userSpaceOnUse">
<stop stop-color="#098DA4"/>
<stop offset="0.1532" stop-color="#15869D"/>
<stop offset="0.3869" stop-color="#24748B"/>
<stop offset="0.672" stop-color="#2A5A70"/>
<stop offset="0.9951" stop-color="#28394F"/>
<stop offset="1" stop-color="#28394F"/>
</linearGradient>
<linearGradient id="paint1_linear" x1="10.2323" y1="42.7803" x2="36.3283" y2="42.7803" gradientUnits="userSpaceOnUse">
<stop stop-color="#098DA4"/>
<stop offset="0.1532" stop-color="#15869D"/>
<stop offset="0.3869" stop-color="#24748B"/>
<stop offset="0.672" stop-color="#2A5A70"/>
<stop offset="0.9951" stop-color="#28394F"/>
<stop offset="1" stop-color="#28394F"/>
</linearGradient>
</defs>
</svg>
